<?xml version="1.0" encoding="utf-8"?>
<!-- Generator: Adobe Illustrator 27.5.0, SVG Export Plug-In . SVG Version: 6.00 Build 0)  -->
<svg version="1.1" id="Layer_1" xmlns="http://www.w3.org/2000/svg" xmlns:xlink="http://www.w3.org/1999/xlink" x="0px" y="0px"
	 viewBox="0 0 512 512" style="enable-background:new 0 0 512 512;" xml:space="preserve">
<g>
	<path d="M275.19,169.33l20.53-123.3c1.69-10.13,10.49-17.6,20.8-17.6c6.67,0,12.89,3.11,16.89,8.44l15.02,20h46.31
		c11.29,0,22.13,4.53,30.13,12.53l16,15.91h49.78c11.82,0,21.33,9.51,21.33,21.33v21.33c0,39.29-31.82,71.11-71.11,71.11h-28.45
		h-14.22h-18.93l-4.53,27.11L275.19,169.33z M369.77,256.09v199.03c0,15.73-12.71,28.45-28.45,28.45h-28.45
		c-15.73,0-28.45-12.71-28.45-28.45V352.72c-21.33,10.93-45.51,17.07-71.11,17.07s-49.78-6.13-71.11-17.07v102.41
		c0,15.73-12.71,28.45-28.45,28.45H85.31c-15.73,0-28.45-12.71-28.45-28.45V250.49c-25.6-9.69-45.69-31.38-52.62-59.11L0.86,177.6
		c-3.82-15.2,5.42-30.67,20.71-34.49c15.29-3.82,30.67,5.42,34.49,20.71l3.47,13.78c3.11,12.62,14.49,21.51,27.56,21.51h26.67h14.22
		h142.05L369.77,256.09z M412.44,99.55c0-7.86-6.37-14.22-14.22-14.22c-7.86,0-14.22,6.37-14.22,14.22s6.37,14.22,14.22,14.22
		C406.07,113.77,412.44,107.4,412.44,99.55z"/>
</g>
</svg>
